<?xml version="1.0" encoding="UTF-8" standalone="no"?>
<!-- Generator: Adobe Illustrator 19.2.1, SVG Export Plug-In . SVG Version: 6.00 Build 0)  -->

<svg
   version="1.1"
   id="layer"
   x="0px"
   y="0px"
   viewBox="0 0 650 85"
   xml:space="preserve"
   sodipodi:docname="jabil-logo-vector.svg"
   width="650"
   height="85"
   inkscape:version="1.3 (0e150ed6c4, 2023-07-21)"
   xmlns:inkscape="http://www.inkscape.org/namespaces/inkscape"
   xmlns:sodipodi="http://sodipodi.sourceforge.net/DTD/sodipodi-0.dtd"
   xmlns="http://www.w3.org/2000/svg"
   xmlns:svg="http://www.w3.org/2000/svg"><defs
   id="defs1" /><sodipodi:namedview
   id="namedview1"
   pagecolor="#ffffff"
   bordercolor="#000000"
   borderopacity="0"
   inkscape:showpageshadow="2"
   inkscape:pageopacity="0.0"
   inkscape:pagecheckerboard="0"
   inkscape:deskcolor="#d1d1d1"
   inkscape:zoom="1"
   inkscape:cx="326"
   inkscape:cy="196"
   inkscape:window-width="1536"
   inkscape:window-height="890"
   inkscape:window-x="-6"
   inkscape:window-y="-6"
   inkscape:window-maximized="1"
   inkscape:current-layer="layer" />&#10;<style
   type="text/css"
   id="style1">&#10;	.st0{fill:#003D6B;}&#10;	.st1{fill:#54C0E8;}&#10;</style>&#10;<path
   class="st0"
   d="m 369.6,13.3 h 2.8 l 6.9,17.4 6.8,-17.4 h 2.8 V 33.1 H 387 V 16 h -0.1 l -6.8,17.1 h -1.8 L 371.5,16 h -0.1 v 17.1 h -1.9 V 13.3 Z m 30.5,1.9 3.8,10.2 h -7.8 z m -9,18 h 2 l 2.4,-6.2 h 9 l 2.4,6.2 h 2 L 401.1,13.4 H 399 Z M 413.2,15 h 4 c 5.7,0 8.2,2.4 8.2,8.3 0,5.9 -2.5,8.3 -8.2,8.3 h -4 z m -1.9,18.2 h 6.9 c 6,-0.1 9.1,-3.4 9.1,-9.9 0,-6.5 -3.1,-9.8 -9.1,-9.9 h -6.9 z m 19.6,0 h 13.8 v -1.6 h -11.9 v -7.8 h 11 v -1.6 h -11 V 15 h 11.8 v -1.6 h -13.7 z m 29.6,-16.5 h 3.4 c 2,0 3.8,0.4 3.8,3 0,2.5 -1.8,3 -3.8,3 h -3.4 z m -4.4,16.5 h 4.4 v -7.1 h 4.6 c 4.9,0 6.9,-3.1 6.9,-6.4 0,-3.2 -1.9,-6.4 -6.9,-6.4 h -8.9 v 19.9 z m 28,-3.2 c -3.9,0 -5.4,-3.3 -5.4,-6.6 0,-3.5 1.5,-6.8 5.4,-6.8 3.9,0 5.4,3.3 5.4,6.8 0,3.2 -1.5,6.6 -5.4,6.6 m 0,-17.1 c -6.1,0 -9.7,4.6 -9.7,10.5 0,5.7 3.6,10.3 9.7,10.3 6.1,0 9.7,-4.6 9.7,-10.3 0,-5.9 -3.6,-10.5 -9.7,-10.5 m 12,13.7 c -0.1,4.9 4.1,7.1 8.4,7.1 5.4,0 8.2,-2.7 8.2,-6.4 0,-4.5 -4.4,-5.4 -5.9,-5.8 -5,-1.3 -5.9,-1.5 -5.9,-3 0,-1.7 1.6,-2.2 3,-2.2 2.1,0 3.8,0.6 3.9,3 h 4.2 c 0,-4.6 -3.8,-6.4 -7.9,-6.4 -3.6,0 -7.4,1.9 -7.4,6 0,3.7 3,4.9 5.9,5.6 2.9,0.8 5.9,1.1 5.9,3.3 0,2 -2.3,2.5 -3.9,2.5 -2.3,0 -4.4,-1 -4.4,-3.7 z m 18.6,0 c -0.1,4.9 4.1,7.1 8.4,7.1 5.4,0 8.2,-2.7 8.2,-6.4 0,-4.5 -4.4,-5.4 -5.9,-5.8 -5,-1.3 -5.9,-1.5 -5.9,-3 0,-1.7 1.6,-2.2 3,-2.2 2.1,0 3.8,0.6 3.9,3 h 4.2 c 0,-4.6 -3.8,-6.4 -7.9,-6.4 -3.6,0 -7.4,1.9 -7.4,6 0,3.7 3,4.9 5.9,5.6 2.9,0.8 5.9,1.1 5.9,3.3 0,2 -2.3,2.5 -3.9,2.5 -2.3,0 -4.4,-1 -4.4,-3.7 z m 19.8,6.6 h 4.4 V 13.4 h -4.4 z m 13.1,-8.9 h 4.7 c 1.9,0 3.1,0.8 3.1,2.8 0,2.1 -1.5,2.6 -3.2,2.6 h -4.7 v -5.4 z m 0,-7.6 h 4.1 c 1.6,0 3,0.4 3,2.3 0,1.7 -1.1,2.4 -2.7,2.4 h -4.4 z m -4.4,16.5 h 9.6 c 3.6,0 7,-1.7 7,-5.7 0,-2.5 -1.2,-4.3 -3.6,-5 1.7,-0.8 2.7,-2.2 2.7,-4.1 0,-3.7 -2.6,-4.9 -6.3,-4.9 h -9.3 v 19.7 z m 20.1,0 h 14 v -3.7 h -9.7 V 13.3 h -4.4 v 19.9 z m 17,0 h 15 v -3.7 h -10.7 v -4.9 h 9.6 v -3.4 h -9.6 V 17 h 10.5 v -3.7 h -14.8 z m 18.3,0 h 4.4 v -4.3 h -4.4 z m -229,26.5 h 1.9 V 42.6 h 0.1 l 6.8,17.1 h 1.8 L 387,42.6 h 0.1 V 59.7 H 389 V 39.9 h -3 l -6.8,17.4 -6.9,-17.4 h -2.8 v 19.8 z m 30.5,-18 3.8,10.2 h -7.8 z m -9,18 h 2 l 2.4,-6.2 h 9 l 2.4,6.2 h 2 L 401.1,39.9 H 399 Z m 22.1,-18.2 h 4 c 5.7,0 8.2,2.4 8.2,8.3 0,5.9 -2.5,8.3 -8.2,8.3 h -4 z m -1.9,18.2 h 6.9 c 6,-0.1 9.1,-3.4 9.1,-9.9 0,-6.5 -3.1,-9.8 -9.1,-9.9 h -6.9 z m 19.6,0 h 13.8 v -1.6 h -11.9 v -7.8 h 11 v -1.6 h -11 v -7.2 h 11.8 v -1.6 h -13.7 z m 29.6,-8.9 h 4.7 c 1.9,0 3.1,0.8 3.1,2.8 0,2.1 -1.5,2.6 -3.2,2.6 h -4.7 v -5.4 z m 0,-7.6 h 4.1 c 1.6,0 3,0.4 3,2.3 0,1.7 -1.1,2.4 -2.7,2.4 h -4.4 z m -4.4,16.5 h 9.6 c 3.6,0 7,-1.7 7,-5.7 0,-2.5 -1.2,-4.3 -3.6,-5 1.7,-0.8 2.7,-2.2 2.7,-4.1 0,-3.7 -2.6,-4.9 -6.3,-4.9 h -9.3 v 19.7 z m 20.1,0 h 15 V 56 h -10.7 v -4.9 h 9.6 v -3.4 h -9.6 V 43.5 H 491 v -3.7 h -14.8 z m 22.9,0 h 4.4 V 43.5 h 5.9 v -3.7 h -16.2 v 3.7 h 5.9 z m 17.6,0 h 4.4 V 43.5 h 5.9 v -3.7 h -16.2 v 3.7 h 5.9 z m 13.1,0 h 15 V 56 h -10.7 v -4.9 h 9.6 v -3.4 h -9.6 v -4.2 h 10.5 v -3.7 h -14.8 z m 22.9,-16.5 h 4.8 c 1.9,0 3,0.8 3,2.7 0,2 -1.1,2.8 -3,2.8 h -4.8 z m -4.4,16.5 h 4.4 V 52 h 4.4 c 2.2,0 3,0.9 3.3,3 0.2,1.6 0.2,3.5 0.7,4.7 h 4.4 c -0.8,-1.1 -0.7,-3.4 -0.8,-4.7 -0.1,-2 -0.7,-4.1 -2.9,-4.6 v -0.1 c 2.2,-0.9 3.1,-2.6 3.1,-5 0,-3 -2.2,-5.5 -5.8,-5.5 h -10.7 v 19.9 z m 20.4,0 h 4.4 v -4.3 h -4.4 z M 14.3,59.2 C 9.9,59.2 6.9,58.4 5.4,56.9 3.9,55.4 3.1,52.6 3.1,48.4 V 39 L 13.8,37 V 50.7 H 34.6 V 13.8 H 45 v 34.7 c 0,4.2 -0.8,7 -2.3,8.5 -1.6,1.5 -4.5,2.3 -8.9,2.3 H 14.3 Z M 86.6,22.5 96.4,41 H 76.5 Z m -19.9,36.7 4,-7.4 1.4,-2.6 26.1,-4.8 8,14.8 h 11.9 L 92.1,13.7 H 81.9 L 56.2,59.2 Z M 167.2,39.4 c 2,0 3.4,0.3 4.1,0.9 0.7,0.6 1.1,1.6 1.1,3.2 v 3.4 c 0,1.5 -0.4,2.6 -1.1,3.2 -0.7,0.6 -2.1,0.9 -4.1,0.9 H 143.1 V 39.4 h 24.1 m 0,-18.3 c 1.8,0 3.1,0.2 3.8,0.7 0.7,0.5 1.1,1.3 1.1,2.5 v 4.3 c 0,1.2 -0.4,2 -1.1,2.5 -0.7,0.5 -2,0.7 -3.8,0.7 H 143.1 V 21 l 24.1,0.1 m 1.6,38.1 c 4.5,0 7.9,-0.7 10.1,-2.2 2.2,-1.5 3.3,-3.7 3.3,-6.7 v -5.8 c 0,-2.4 -0.7,-4.4 -2.1,-5.9 -1.4,-1.5 -3.4,-2.5 -6.1,-2.8 2.5,-0.3 4.4,-1.1 5.8,-2.4 1.3,-1.3 2,-3 2,-5.2 v -5.5 c 0,-3.1 -0.8,-5.3 -2.4,-6.7 -1.6,-1.4 -4.2,-2.1 -7.8,-2.1 h -38.9 v 45.5 h 36.1 z m 33.8,0 h 10.6 V 13.7 h -10.6 z m 78.5,0 V 50.7 H 247 V 13.8 h -10.6 v 45.5 h 44.7 z"
   id="path1" />&#10;<polygon
   class="st1"
   points="98,320.6 88.6,337.8 155,320.6 "
   id="polygon1"
   transform="translate(-18,-286)" />&#10;<rect
   x="324.39999"
   y="1"
   class="st1"
   width="2.9000001"
   height="68.699997"
   id="rect1" />&#10;</svg>
